<mxfile host="app.diagrams.net" modified="2020-09-18T08:28:02.091Z" agent="5.0 (Windows NT 10.0; Win64; x64) AppleWebKit/537.36 (KHTML, like Gecko) Chrome/85.0.4183.102 Safari/537.36" etag="9fOG6GmCMIblcxoTcCKB" version="13.6.10" type="github">
  <diagram id="J9oQ7YEbLdYVICq-9z-E" name="Page-1">
    <mxGraphModel dx="1888" dy="580" grid="0" gridSize="10" guides="1" tooltips="1" connect="1" arrows="1" fold="1" page="1" pageScale="1" pageWidth="850" pageHeight="1100" math="0" shadow="0">
      <root>
        <mxCell id="0" />
        <mxCell id="1" parent="0" />
        <mxCell id="SAiguCN7g2tJS7Ev6xJh-11" value="" style="shape=image;html=1;verticalAlign=top;verticalLabelPosition=bottom;labelBackgroundColor=#ffffff;imageAspect=0;aspect=fixed;image=https://cdn0.iconfinder.com/data/icons/elasto-online-store/26/00-ELASTOFONT-STORE-READY_bank-128.png" parent="1" vertex="1">
          <mxGeometry x="11" y="364.25" width="41" height="41" as="geometry" />
        </mxCell>
        <mxCell id="SAiguCN7g2tJS7Ev6xJh-13" value="" style="shape=image;html=1;verticalAlign=top;verticalLabelPosition=bottom;labelBackgroundColor=#ffffff;imageAspect=0;aspect=fixed;image=https://cdn3.iconfinder.com/data/icons/google-material-design-icons/48/ic_payment_48px-128.png" parent="1" vertex="1">
          <mxGeometry x="99" y="358" width="50.5" height="50.5" as="geometry" />
        </mxCell>
        <mxCell id="SAiguCN7g2tJS7Ev6xJh-14" value="ACH" style="text;html=1;align=center;verticalAlign=middle;resizable=0;points=[];autosize=1;" parent="1" vertex="1">
          <mxGeometry x="11" y="409" width="36" height="18" as="geometry" />
        </mxCell>
        <mxCell id="SAiguCN7g2tJS7Ev6xJh-16" value="CC/DC" style="text;html=1;align=center;verticalAlign=middle;resizable=0;points=[];autosize=1;" parent="1" vertex="1">
          <mxGeometry x="98.5" y="406.25" width="48" height="18" as="geometry" />
        </mxCell>
        <mxCell id="SAiguCN7g2tJS7Ev6xJh-20" value="CRM-US" style="rounded=1;whiteSpace=wrap;html=1;" parent="1" vertex="1">
          <mxGeometry x="25" y="205" width="108.5" height="42" as="geometry" />
        </mxCell>
        <mxCell id="SAiguCN7g2tJS7Ev6xJh-21" value="CRM-CA" style="rounded=1;whiteSpace=wrap;html=1;" parent="1" vertex="1">
          <mxGeometry x="197" y="208" width="108.5" height="42" as="geometry" />
        </mxCell>
        <mxCell id="SAiguCN7g2tJS7Ev6xJh-22" value="CBTS-US" style="rounded=1;whiteSpace=wrap;html=1;" parent="1" vertex="1">
          <mxGeometry x="369" y="205" width="108.5" height="42" as="geometry" />
        </mxCell>
        <mxCell id="SAiguCN7g2tJS7Ev6xJh-23" value="CBTS-CA" style="rounded=1;whiteSpace=wrap;html=1;" parent="1" vertex="1">
          <mxGeometry x="555" y="205" width="108.5" height="42" as="geometry" />
        </mxCell>
        <mxCell id="SAiguCN7g2tJS7Ev6xJh-24" value="CBTS-UK" style="rounded=1;whiteSpace=wrap;html=1;" parent="1" vertex="1">
          <mxGeometry x="734" y="202" width="108.5" height="42" as="geometry" />
        </mxCell>
        <mxCell id="SAiguCN7g2tJS7Ev6xJh-26" value="&lt;font style=&quot;font-size: 19px&quot;&gt;Future Payment&lt;/font&gt;" style="rounded=0;whiteSpace=wrap;html=1;" parent="1" vertex="1">
          <mxGeometry x="303" y="32" width="228" height="60" as="geometry" />
        </mxCell>
        <mxCell id="SAiguCN7g2tJS7Ev6xJh-30" value="" style="endArrow=none;html=1;" parent="1" edge="1">
          <mxGeometry width="50" height="50" relative="1" as="geometry">
            <mxPoint x="81" y="148" as="sourcePoint" />
            <mxPoint x="786" y="148" as="targetPoint" />
          </mxGeometry>
        </mxCell>
        <mxCell id="SAiguCN7g2tJS7Ev6xJh-31" value="" style="endArrow=none;html=1;" parent="1" edge="1">
          <mxGeometry width="50" height="50" relative="1" as="geometry">
            <mxPoint x="417" y="205" as="sourcePoint" />
            <mxPoint x="417" y="147" as="targetPoint" />
          </mxGeometry>
        </mxCell>
        <mxCell id="SAiguCN7g2tJS7Ev6xJh-32" value="" style="endArrow=none;html=1;" parent="1" edge="1">
          <mxGeometry width="50" height="50" relative="1" as="geometry">
            <mxPoint x="81" y="205" as="sourcePoint" />
            <mxPoint x="81" y="147" as="targetPoint" />
          </mxGeometry>
        </mxCell>
        <mxCell id="SAiguCN7g2tJS7Ev6xJh-33" value="" style="endArrow=none;html=1;" parent="1" edge="1">
          <mxGeometry width="50" height="50" relative="1" as="geometry">
            <mxPoint x="247" y="205" as="sourcePoint" />
            <mxPoint x="247" y="147" as="targetPoint" />
          </mxGeometry>
        </mxCell>
        <mxCell id="SAiguCN7g2tJS7Ev6xJh-34" value="" style="endArrow=none;html=1;" parent="1" edge="1">
          <mxGeometry width="50" height="50" relative="1" as="geometry">
            <mxPoint x="787.75" y="202" as="sourcePoint" />
            <mxPoint x="788" y="149" as="targetPoint" />
          </mxGeometry>
        </mxCell>
        <mxCell id="SAiguCN7g2tJS7Ev6xJh-35" value="" style="endArrow=none;html=1;" parent="1" edge="1">
          <mxGeometry width="50" height="50" relative="1" as="geometry">
            <mxPoint x="608.75" y="205" as="sourcePoint" />
            <mxPoint x="608.75" y="147" as="targetPoint" />
          </mxGeometry>
        </mxCell>
        <mxCell id="SAiguCN7g2tJS7Ev6xJh-36" value="" style="endArrow=none;html=1;" parent="1" edge="1">
          <mxGeometry width="50" height="50" relative="1" as="geometry">
            <mxPoint x="417" y="152" as="sourcePoint" />
            <mxPoint x="417" y="94" as="targetPoint" />
          </mxGeometry>
        </mxCell>
        <mxCell id="SAiguCN7g2tJS7Ev6xJh-45" value="" style="strokeWidth=1;html=1;shape=mxgraph.flowchart.annotation_2;align=left;labelPosition=right;pointerEvents=1;direction=south;" parent="1" vertex="1">
          <mxGeometry x="27.5" y="247" width="98.5" height="111" as="geometry" />
        </mxCell>
        <mxCell id="SAiguCN7g2tJS7Ev6xJh-59" value="" style="shape=image;html=1;verticalAlign=top;verticalLabelPosition=bottom;labelBackgroundColor=#ffffff;imageAspect=0;aspect=fixed;image=https://cdn3.iconfinder.com/data/icons/tango-icon-library/48/process-stop-128.png;strokeColor=#000000;strokeWidth=1;" parent="1" vertex="1">
          <mxGeometry x="769" y="305" width="50" height="50" as="geometry" />
        </mxCell>
        <mxCell id="SAiguCN7g2tJS7Ev6xJh-60" value="" style="endArrow=none;html=1;" parent="1" edge="1">
          <mxGeometry width="50" height="50" relative="1" as="geometry">
            <mxPoint x="793" y="302" as="sourcePoint" />
            <mxPoint x="793" y="244" as="targetPoint" />
          </mxGeometry>
        </mxCell>
        <mxCell id="3agMhINum5lRsY7JjDlr-2" value="" style="shape=image;html=1;verticalAlign=top;verticalLabelPosition=bottom;labelBackgroundColor=#ffffff;imageAspect=0;aspect=fixed;image=https://cdn0.iconfinder.com/data/icons/elasto-online-store/26/00-ELASTOFONT-STORE-READY_bank-128.png" parent="1" vertex="1">
          <mxGeometry x="230.75" y="312" width="41" height="41" as="geometry" />
        </mxCell>
        <mxCell id="3agMhINum5lRsY7JjDlr-3" value="CEFT" style="text;html=1;align=center;verticalAlign=middle;resizable=0;points=[];autosize=1;" parent="1" vertex="1">
          <mxGeometry x="230.75" y="355" width="41" height="18" as="geometry" />
        </mxCell>
        <mxCell id="DEjnjeISw7vLiM5D_dcb-1" value="" style="endArrow=none;html=1;" parent="1" edge="1">
          <mxGeometry width="50" height="50" relative="1" as="geometry">
            <mxPoint x="250.75" y="308.5" as="sourcePoint" />
            <mxPoint x="250.75" y="250.5" as="targetPoint" />
          </mxGeometry>
        </mxCell>
        <mxCell id="DEjnjeISw7vLiM5D_dcb-2" value="" style="shape=image;html=1;verticalAlign=top;verticalLabelPosition=bottom;labelBackgroundColor=#ffffff;imageAspect=0;aspect=fixed;image=https://cdn3.iconfinder.com/data/icons/tango-icon-library/48/process-stop-128.png;strokeColor=#000000;strokeWidth=1;" parent="1" vertex="1">
          <mxGeometry x="584.25" y="308" width="50" height="50" as="geometry" />
        </mxCell>
        <mxCell id="DEjnjeISw7vLiM5D_dcb-3" value="" style="endArrow=none;html=1;" parent="1" edge="1">
          <mxGeometry width="50" height="50" relative="1" as="geometry">
            <mxPoint x="608.25" y="305" as="sourcePoint" />
            <mxPoint x="608.25" y="247" as="targetPoint" />
          </mxGeometry>
        </mxCell>
        <mxCell id="DEjnjeISw7vLiM5D_dcb-4" value="" style="shape=image;html=1;verticalAlign=top;verticalLabelPosition=bottom;labelBackgroundColor=#ffffff;imageAspect=0;aspect=fixed;image=https://cdn3.iconfinder.com/data/icons/tango-icon-library/48/process-stop-128.png;strokeColor=#000000;strokeWidth=1;" parent="1" vertex="1">
          <mxGeometry x="392" y="308" width="50" height="50" as="geometry" />
        </mxCell>
        <mxCell id="DEjnjeISw7vLiM5D_dcb-5" value="" style="endArrow=none;html=1;" parent="1" edge="1">
          <mxGeometry width="50" height="50" relative="1" as="geometry">
            <mxPoint x="416" y="305" as="sourcePoint" />
            <mxPoint x="416" y="247" as="targetPoint" />
          </mxGeometry>
        </mxCell>
        <mxCell id="GR9ysfcV0z_EnGPLHTL4-1" value="" style="endArrow=none;dashed=1;html=1;dashPattern=1 3;strokeWidth=2;" edge="1" parent="1">
          <mxGeometry width="50" height="50" relative="1" as="geometry">
            <mxPoint x="2" y="117" as="sourcePoint" />
            <mxPoint x="848" y="117" as="targetPoint" />
          </mxGeometry>
        </mxCell>
        <mxCell id="GR9ysfcV0z_EnGPLHTL4-2" value="" style="endArrow=none;dashed=1;html=1;dashPattern=1 3;strokeWidth=2;" edge="1" parent="1">
          <mxGeometry width="50" height="50" relative="1" as="geometry">
            <mxPoint x="2" y="467" as="sourcePoint" />
            <mxPoint x="58" y="467" as="targetPoint" />
          </mxGeometry>
        </mxCell>
        <mxCell id="GR9ysfcV0z_EnGPLHTL4-3" value="" style="endArrow=none;dashed=1;html=1;dashPattern=1 3;strokeWidth=2;" edge="1" parent="1">
          <mxGeometry width="50" height="50" relative="1" as="geometry">
            <mxPoint y="468" as="sourcePoint" />
            <mxPoint y="116" as="targetPoint" />
          </mxGeometry>
        </mxCell>
        <mxCell id="GR9ysfcV0z_EnGPLHTL4-4" value="" style="endArrow=none;dashed=1;html=1;dashPattern=1 3;strokeWidth=2;" edge="1" parent="1">
          <mxGeometry width="50" height="50" relative="1" as="geometry">
            <mxPoint x="846" y="464" as="sourcePoint" />
            <mxPoint x="846" y="112" as="targetPoint" />
          </mxGeometry>
        </mxCell>
        <mxCell id="GR9ysfcV0z_EnGPLHTL4-5" value="" style="strokeWidth=1;html=1;shape=mxgraph.flowchart.annotation_2;align=left;labelPosition=right;pointerEvents=1;direction=north;" vertex="1" parent="1">
          <mxGeometry x="60" y="439" width="739" height="116" as="geometry" />
        </mxCell>
        <mxCell id="GR9ysfcV0z_EnGPLHTL4-6" value="" style="endArrow=none;dashed=1;html=1;dashPattern=1 3;strokeWidth=2;" edge="1" parent="1">
          <mxGeometry width="50" height="50" relative="1" as="geometry">
            <mxPoint x="802" y="464" as="sourcePoint" />
            <mxPoint x="850" y="464" as="targetPoint" />
          </mxGeometry>
        </mxCell>
        <mxCell id="GR9ysfcV0z_EnGPLHTL4-7" value="Account number and Invoice (Currency)&amp;nbsp;" style="rounded=1;whiteSpace=wrap;html=1;" vertex="1" parent="1">
          <mxGeometry x="309" y="547" width="246" height="43" as="geometry" />
        </mxCell>
        <mxCell id="GR9ysfcV0z_EnGPLHTL4-8" value="" style="endArrow=none;html=1;" edge="1" parent="1">
          <mxGeometry width="50" height="50" relative="1" as="geometry">
            <mxPoint x="431" y="641" as="sourcePoint" />
            <mxPoint x="431" y="590" as="targetPoint" />
          </mxGeometry>
        </mxCell>
        <mxCell id="GR9ysfcV0z_EnGPLHTL4-9" value="" style="endArrow=none;html=1;" edge="1" parent="1">
          <mxGeometry width="50" height="50" relative="1" as="geometry">
            <mxPoint x="230" y="643" as="sourcePoint" />
            <mxPoint x="662" y="643" as="targetPoint" />
          </mxGeometry>
        </mxCell>
        <mxCell id="GR9ysfcV0z_EnGPLHTL4-10" value="CC/DB" style="text;html=1;align=center;verticalAlign=middle;resizable=0;points=[];autosize=1;" vertex="1" parent="1">
          <mxGeometry x="313" y="626" width="48" height="18" as="geometry" />
        </mxCell>
        <mxCell id="GR9ysfcV0z_EnGPLHTL4-11" value="ACH/CEFT" style="text;html=1;align=center;verticalAlign=middle;resizable=0;points=[];autosize=1;" vertex="1" parent="1">
          <mxGeometry x="549" y="626" width="70" height="18" as="geometry" />
        </mxCell>
        <mxCell id="GR9ysfcV0z_EnGPLHTL4-12" value="" style="endArrow=classic;html=1;" edge="1" parent="1">
          <mxGeometry width="50" height="50" relative="1" as="geometry">
            <mxPoint x="230" y="644" as="sourcePoint" />
            <mxPoint x="230" y="706" as="targetPoint" />
          </mxGeometry>
        </mxCell>
        <mxCell id="GR9ysfcV0z_EnGPLHTL4-13" value="" style="endArrow=classic;html=1;" edge="1" parent="1">
          <mxGeometry width="50" height="50" relative="1" as="geometry">
            <mxPoint x="663.5" y="644" as="sourcePoint" />
            <mxPoint x="663.5" y="706" as="targetPoint" />
          </mxGeometry>
        </mxCell>
        <mxCell id="GR9ysfcV0z_EnGPLHTL4-14" value="Check Credit card payment is allowed by Account number&amp;nbsp;" style="rounded=1;whiteSpace=wrap;html=1;" vertex="1" parent="1">
          <mxGeometry x="115" y="706" width="246" height="43" as="geometry" />
        </mxCell>
        <mxCell id="GR9ysfcV0z_EnGPLHTL4-15" value="" style="endArrow=classic;html=1;" edge="1" parent="1">
          <mxGeometry width="50" height="50" relative="1" as="geometry">
            <mxPoint x="84" y="793" as="sourcePoint" />
            <mxPoint x="84" y="844" as="targetPoint" />
          </mxGeometry>
        </mxCell>
        <mxCell id="GR9ysfcV0z_EnGPLHTL4-16" value="" style="endArrow=none;html=1;" edge="1" parent="1">
          <mxGeometry width="50" height="50" relative="1" as="geometry">
            <mxPoint x="228" y="791" as="sourcePoint" />
            <mxPoint x="228" y="749" as="targetPoint" />
          </mxGeometry>
        </mxCell>
        <mxCell id="GR9ysfcV0z_EnGPLHTL4-17" value="" style="endArrow=none;html=1;" edge="1" parent="1">
          <mxGeometry width="50" height="50" relative="1" as="geometry">
            <mxPoint x="85" y="792" as="sourcePoint" />
            <mxPoint x="379" y="792" as="targetPoint" />
          </mxGeometry>
        </mxCell>
        <mxCell id="GR9ysfcV0z_EnGPLHTL4-18" value="" style="endArrow=classic;html=1;" edge="1" parent="1">
          <mxGeometry width="50" height="50" relative="1" as="geometry">
            <mxPoint x="379" y="791" as="sourcePoint" />
            <mxPoint x="379" y="842" as="targetPoint" />
          </mxGeometry>
        </mxCell>
        <mxCell id="GR9ysfcV0z_EnGPLHTL4-19" value="Yes" style="text;html=1;align=center;verticalAlign=middle;resizable=0;points=[];autosize=1;" vertex="1" parent="1">
          <mxGeometry x="91" y="801" width="29" height="18" as="geometry" />
        </mxCell>
        <mxCell id="GR9ysfcV0z_EnGPLHTL4-20" value="&lt;span style=&quot;color: rgb(0 , 0 , 0) ; font-family: &amp;#34;helvetica&amp;#34; ; font-size: 12px ; font-style: normal ; font-weight: 400 ; letter-spacing: normal ; text-align: center ; text-indent: 0px ; text-transform: none ; word-spacing: 0px ; background-color: rgb(248 , 249 , 250) ; display: inline ; float: none&quot;&gt;No&lt;/span&gt;" style="text;whiteSpace=wrap;html=1;" vertex="1" parent="1">
          <mxGeometry x="349.9999755859375" y="796" width="39" height="28" as="geometry" />
        </mxCell>
        <mxCell id="GR9ysfcV0z_EnGPLHTL4-21" value="&lt;p class=&quot;MsoNormal&quot;&gt;Allow to make payment through&lt;br&gt;Debit Card&amp;nbsp;&lt;/p&gt;" style="rounded=1;whiteSpace=wrap;html=1;" vertex="1" parent="1">
          <mxGeometry x="294" y="843" width="176" height="42" as="geometry" />
        </mxCell>
        <mxCell id="GR9ysfcV0z_EnGPLHTL4-22" value="Check ACH/CEFT payment is allowed by Billing and Currency" style="rounded=1;whiteSpace=wrap;html=1;" vertex="1" parent="1">
          <mxGeometry x="543" y="708" width="246" height="43" as="geometry" />
        </mxCell>
        <mxCell id="GR9ysfcV0z_EnGPLHTL4-23" value="" style="endArrow=classic;html=1;" edge="1" parent="1">
          <mxGeometry width="50" height="50" relative="1" as="geometry">
            <mxPoint x="529" y="853" as="sourcePoint" />
            <mxPoint x="529" y="904" as="targetPoint" />
          </mxGeometry>
        </mxCell>
        <mxCell id="GR9ysfcV0z_EnGPLHTL4-24" value="" style="endArrow=none;html=1;" edge="1" parent="1">
          <mxGeometry width="50" height="50" relative="1" as="geometry">
            <mxPoint x="673" y="851" as="sourcePoint" />
            <mxPoint x="673" y="755" as="targetPoint" />
          </mxGeometry>
        </mxCell>
        <mxCell id="GR9ysfcV0z_EnGPLHTL4-25" value="" style="endArrow=none;html=1;" edge="1" parent="1">
          <mxGeometry width="50" height="50" relative="1" as="geometry">
            <mxPoint x="530" y="852" as="sourcePoint" />
            <mxPoint x="824" y="852" as="targetPoint" />
          </mxGeometry>
        </mxCell>
        <mxCell id="GR9ysfcV0z_EnGPLHTL4-26" value="ACH" style="text;html=1;align=center;verticalAlign=middle;resizable=0;points=[];autosize=1;" vertex="1" parent="1">
          <mxGeometry x="533" y="861" width="36" height="18" as="geometry" />
        </mxCell>
        <mxCell id="GR9ysfcV0z_EnGPLHTL4-27" value="&lt;span style=&quot;color: rgb(0 , 0 , 0) ; font-family: &amp;#34;helvetica&amp;#34; ; font-size: 12px ; font-style: normal ; font-weight: 400 ; letter-spacing: normal ; text-align: center ; text-indent: 0px ; text-transform: none ; word-spacing: 0px ; background-color: rgb(248 , 249 , 250) ; display: inline ; float: none&quot;&gt;CEFT&lt;/span&gt;" style="text;whiteSpace=wrap;html=1;" vertex="1" parent="1">
          <mxGeometry x="784" y="857" width="39" height="26" as="geometry" />
        </mxCell>
        <mxCell id="GR9ysfcV0z_EnGPLHTL4-28" value="&lt;p class=&quot;MsoNormal&quot;&gt;Allow to make payment through&lt;br&gt;CEFT&amp;nbsp;&lt;/p&gt;" style="rounded=1;whiteSpace=wrap;html=1;" vertex="1" parent="1">
          <mxGeometry x="455" y="906" width="176" height="42" as="geometry" />
        </mxCell>
        <mxCell id="GR9ysfcV0z_EnGPLHTL4-29" value="" style="endArrow=classic;html=1;" edge="1" parent="1">
          <mxGeometry width="50" height="50" relative="1" as="geometry">
            <mxPoint x="823" y="852" as="sourcePoint" />
            <mxPoint x="823" y="903" as="targetPoint" />
          </mxGeometry>
        </mxCell>
        <mxCell id="GR9ysfcV0z_EnGPLHTL4-30" value="" style="strokeWidth=1;html=1;shape=mxgraph.flowchart.annotation_2;align=left;labelPosition=right;pointerEvents=1;direction=north;" vertex="1" parent="1">
          <mxGeometry x="84" y="957" width="739" height="116" as="geometry" />
        </mxCell>
        <mxCell id="GR9ysfcV0z_EnGPLHTL4-31" value="&lt;p class=&quot;MsoNormal&quot;&gt;Get the internal Account information&lt;/p&gt;" style="rounded=1;whiteSpace=wrap;html=1;" vertex="1" parent="1">
          <mxGeometry x="367.75" y="1073" width="176" height="42" as="geometry" />
        </mxCell>
        <mxCell id="GR9ysfcV0z_EnGPLHTL4-32" value="" style="endArrow=classic;html=1;" edge="1" parent="1">
          <mxGeometry width="50" height="50" relative="1" as="geometry">
            <mxPoint x="455.25" y="1118" as="sourcePoint" />
            <mxPoint x="455.25" y="1169" as="targetPoint" />
          </mxGeometry>
        </mxCell>
        <mxCell id="GR9ysfcV0z_EnGPLHTL4-33" value="&lt;p class=&quot;MsoNormal&quot;&gt;Get the payment options&lt;/p&gt;" style="rounded=1;whiteSpace=wrap;html=1;" vertex="1" parent="1">
          <mxGeometry x="369" y="1170" width="176" height="42" as="geometry" />
        </mxCell>
        <mxCell id="GR9ysfcV0z_EnGPLHTL4-34" value="" style="endArrow=classic;html=1;" edge="1" parent="1">
          <mxGeometry width="50" height="50" relative="1" as="geometry">
            <mxPoint x="455.25" y="1212" as="sourcePoint" />
            <mxPoint x="455.25" y="1263" as="targetPoint" />
          </mxGeometry>
        </mxCell>
        <mxCell id="GR9ysfcV0z_EnGPLHTL4-35" value="&lt;p class=&quot;MsoNormal&quot;&gt;Make Payment&lt;/p&gt;" style="rounded=1;whiteSpace=wrap;html=1;" vertex="1" parent="1">
          <mxGeometry x="369.5" y="1264" width="176" height="42" as="geometry" />
        </mxCell>
        <mxCell id="GR9ysfcV0z_EnGPLHTL4-36" value="&lt;p class=&quot;MsoNormal&quot;&gt;Allow to make payment through&lt;br/&gt;Credit/Debit Card&amp;nbsp;&lt;/p&gt;" style="rounded=1;whiteSpace=wrap;html=1;" vertex="1" parent="1">
          <mxGeometry x="7" y="846" width="176" height="42" as="geometry" />
        </mxCell>
        <mxCell id="GR9ysfcV0z_EnGPLHTL4-37" value="&lt;p class=&quot;MsoNormal&quot;&gt;Allow to make payment through&lt;br&gt;ACH Card&amp;nbsp;&lt;/p&gt;" style="rounded=1;whiteSpace=wrap;html=1;" vertex="1" parent="1">
          <mxGeometry x="737" y="903" width="176" height="42" as="geometry" />
        </mxCell>
      </root>
    </mxGraphModel>
  </diagram>
</mxfile>
